PathFileType	4	(X/Y/Z)	 control3min.trc
DataRate	CameraRate	NumFrames	NumMarkers	Units	OrigDataRate	OrigDataStartFrame	OrigNumFrames
200	200	8	39	m	200	251	1000
Frame#	Time	C7			LSH			RSH			MAN			RASI			LASI			HIPR			HIPL			RPSI			LPSI			COX			RTHI1			RTHI2			RTHI3			RTHI4			RLKN			RMKN			RSHA1			RSHA2			RSHA3			RSHA4			RHEEL			RMET5			RMET1			RTOE			LTHI1			LTHI2			LTHI3			LTHI4			LLKN			LMKN			LSHA1			LSHA2			LSHA3			LSHA4			LHEEL			LMET5			LMET1			LTOE			
		X1	Y1	Z1	X2	Y2	Z2	X3	Y3	Z3	X4	Y4	Z4	X5	Y5	Z5	X6	Y6	Z6	X7	Y7	Z7	X8	Y8	Z8	X9	Y9	Z9	X10	Y10	Z10	X11	Y11	Z11	X12	Y12	Z12	X13	Y13	Z13	X14	Y14	Z14	X15	Y15	Z15	X16	Y16	Z16	X17	Y17	Z17	X18	Y18	Z18	X19	Y19	Z19	X20	Y20	Z20	X21	Y21	Z21	X22	Y22	Z22	X23	Y23	Z23	X24	Y24	Z24	X25	Y25	Z25	X26	Y26	Z26	X27	Y27	Z27	X28	Y28	Z28	X29	Y29	Z29	X30	Y30	Z30	X31	Y31	Z31	X32	Y32	Z32	X33	Y33	Z33	X34	Y34	Z34	X35	Y35	Z35	X36	Y36	Z36	X37	Y37	Z37	X38	Y38	Z38	X39	Y39	Z39	
251	1.2550	-0.283277	1.465750	-0.526616	-0.230419	1.440163	-0.717796	-0.243848	1.446990	-0.338943	-0.134862	1.408067	-0.530385	-0.163608	0.948981	-0.412285	-0.156162	0.948192	-0.648183	-0.245226	1.019140	-0.362935	-0.223751	1.022604	-0.696224	-0.338852	1.003569	-0.499108	-0.333591	1.007450	-0.575965	-0.336685	1.002641	-0.536398	-0.248215	0.770606	-0.336528	-0.229843	0.714943	-0.329475	-0.167744	0.734188	-0.326509	-0.179907	0.793960	-0.334526	-0.193350	0.447286	-0.353791	-0.162621	0.441835	-0.473953	-0.279617	0.309482	-0.348289	-0.305664	0.275170	-0.360757	-0.252644	0.246249	-0.365422	-0.231334	0.280115	-0.357857	-0.400908	0.092236	-0.449093	-0.253336	0.035244	-0.359726	-0.196739	0.047345	-0.426160	-0.167469	0.037422	-0.419086	-0.254430	0.740346	-0.720336	-0.225901	0.685856	-0.726763	-0.167841	0.711652	-0.738893	-0.187833	0.768653	-0.734374	-0.182296	0.459087	-0.709130	-0.161115	0.449176	-0.586852	-0.308260	0.269278	-0.699382	-0.328591	0.235579	-0.688165	-0.272650	0.207734	-0.694636	-0.258966	0.248247	-0.705841	-0.407895	0.078995	-0.616610	-0.254063	0.037764	-0.709573	-0.200309	0.050129	-0.641972	-0.170011	0.036831	-0.652534	
252	1.2600	-0.283670	1.470525	-0.526648	-0.230713	1.445370	-0.717533	-0.244438	1.452079	-0.339216	-0.135189	1.413310	-0.530307	-0.162812	0.953645	-0.412292	-0.155398	0.952876	-0.647969	-0.243875	1.024381	-0.363102	-0.222608	1.028014	-0.696161	-0.338060	1.008206	-0.499000	-0.332786	1.012169	-0.575948	-0.335988	1.007203	-0.536364	-0.248377	0.775502	-0.336525	-0.230449	0.719693	-0.329478	-0.168193	0.738414	-0.326601	-0.179869	0.798282	-0.334602	-0.196620	0.451300	-0.353771	-0.165677	0.445725	-0.474006	-0.281844	0.312776	-0.348200	-0.307475	0.278250	-0.360730	-0.254245	0.249591	-0.364851	-0.233218	0.283662	-0.357436	-0.400421	0.094513	-0.448304	-0.253089	0.035315	-0.359674	-0.196693	0.047344	-0.426080	-0.167543	0.037414	-0.419132	-0.254785	0.745383	-0.720500	-0.226648	0.690690	-0.726927	-0.168355	0.716056	-0.738805	-0.187921	0.773192	-0.734250	-0.185349	0.463232	-0.709201	-0.164053	0.453277	-0.586886	-0.309857	0.272215	-0.699561	-0.329843	0.238349	-0.688326	-0.273701	0.210999	-0.695174	-0.260428	0.251647	-0.706338	-0.407233	0.081655	-0.617184	-0.253846	0.037850	-0.709550	-0.200208	0.050116	-0.642082	-0.170029	0.036827	-0.652436	
253	1.2650	-0.284062	1.475440	-0.526694	-0.230986	1.450701	-0.717260	-0.245042	1.457280	-0.339539	-0.135570	1.418689	-0.530240	-0.162039	0.958380	-0.412328	-0.154685	0.957709	-0.647785	-0.242530	1.029742	-0.363236	-0.221523	1.033590	-0.696090	-0.337291	1.013005	-0.498851	-0.332013	1.017060	-0.575894	-0.335330	1.011932	-0.536298	-0.248539	0.780535	-0.336518	-0.231047	0.724565	-0.329473	-0.168627	0.742778	-0.326673	-0.179822	0.802730	-0.334660	-0.199895	0.455488	-0.353725	-0.168730	0.449715	-0.474042	-0.284046	0.316155	-0.348029	-0.309253	0.281518	-0.360563	-0.255805	0.253104	-0.364210	-0.235061	0.287368	-0.356985	-0.399886	0.096977	-0.447373	-0.252796	0.035407	-0.359570	-0.196650	0.047351	-0.425972	-0.167638	0.037414	-0.419172	-0.255143	0.750604	-0.720715	-0.227363	0.695720	-0.727109	-0.168853	0.720680	-0.738745	-0.188021	0.777938	-0.734133	-0.188344	0.467633	-0.709299	-0.166930	0.457519	-0.586970	-0.311401	0.275347	-0.699854	-0.331016	0.241308	-0.688624	-0.274676	0.214455	-0.695839	-0.261828	0.255250	-0.706939	-0.406492	0.084544	-0.617923	-0.253573	0.037959	-0.709578	-0.200113	0.050104	-0.642228	-0.170060	0.036822	-0.652328	
254	1.2700	-0.284451	1.480442	-0.526750	-0.231236	1.456125	-0.716978	-0.245647	1.462565	-0.339876	-0.135983	1.424182	-0.530179	-0.161284	0.963180	-0.412388	-0.154028	0.962689	-0.647637	-0.241199	1.035193	-0.363337	-0.220499	1.039289	-0.696000	-0.336538	1.017946	-0.498651	-0.331278	1.022087	-0.575796	-0.334691	1.016802	-0.536184	-0.248701	0.785667	-0.336507	-0.231642	0.729523	-0.329450	-0.169062	0.747220	-0.326722	-0.179778	0.807271	-0.334691	-0.203142	0.459808	-0.353671	-0.171771	0.453781	-0.474069	-0.286186	0.319602	-0.347751	-0.310959	0.284996	-0.360082	-0.257290	0.256754	-0.363489	-0.236832	0.291184	-0.356508	-0.399283	0.099587	-0.446296	-0.252462	0.035519	-0.359413	-0.196606	0.047370	-0.425837	-0.167747	0.037426	-0.419207	-0.255497	0.755984	-0.720965	-0.228040	0.700899	-0.727300	-0.169333	0.725493	-0.738711	-0.188137	0.782859	-0.734026	-0.191275	0.472266	-0.709412	-0.169713	0.461862	-0.587100	-0.312884	0.278642	-0.700250	-0.332105	0.244427	-0.689045	-0.275593	0.218142	-0.696645	-0.263169	0.259030	-0.707642	-0.405684	0.087631	-0.618819	-0.253242	0.038090	-0.709666	-0.200021	0.050095	-0.642411	-0.170103	0.036818	-0.652213	
255	1.2750	-0.284841	1.485518	-0.526819	-0.231464	1.461605	-0.716691	-0.246238	1.467906	-0.340180	-0.136444	1.429744	-0.530129	-0.160559	0.968033	-0.412467	-0.153439	0.967804	-0.647535	-0.239885	1.040698	-0.363402	-0.219537	1.045060	-0.695871	-0.335801	1.023000	-0.498405	-0.330582	1.027226	-0.575652	-0.334086	1.021789	-0.536027	-0.248887	0.790854	-0.336488	-0.232243	0.734540	-0.329430	-0.169516	0.751724	-0.326748	-0.179757	0.811863	-0.334692	-0.206349	0.464242	-0.353625	-0.174796	0.457900	-0.474099	-0.288254	0.323093	-0.347402	-0.312597	0.288543	-0.359504	-0.258705	0.260526	-0.362725	-0.238510	0.295118	-0.356016	-0.398579	0.102317	-0.445065	-0.252088	0.035655	-0.359212	-0.196559	0.047401	-0.425677	-0.167865	0.037446	-0.419237	-0.255855	0.761478	-0.721241	-0.228683	0.706196	-0.727484	-0.169805	0.730450	-0.738701	-0.188271	0.787918	-0.733932	-0.194150	0.477082	-0.709532	-0.172399	0.466277	-0.587259	-0.314309	0.282074	-0.700731	-0.333133	0.247669	-0.689566	-0.276410	0.221967	-0.697563	-0.264444	0.262967	-0.708445	-0.404784	0.090865	-0.619890	-0.252861	0.038240	-0.709818	-0.199934	0.050092	-0.642635	-0.170160	0.036816	-0.652093	
256	1.2800	-0.285233	1.490618	-0.526901	-0.231669	1.467113	-0.716399	-0.246812	1.473273	-0.340471	-0.136927	1.435359	-0.530083	-0.159870	0.972925	-0.412551	-0.152938	0.973015	-0.647463	-0.238593	1.046233	-0.363429	-0.218636	1.050876	-0.695691	-0.335085	1.028138	-0.498121	-0.329925	1.032445	-0.575463	-0.333510	1.026861	-0.535823	-0.249095	0.796053	-0.336456	-0.232864	0.739577	-0.329412	-0.170008	0.756256	-0.326750	-0.179777	0.816490	-0.334659	-0.209495	0.468766	-0.353592	-0.177790	0.462066	-0.474142	-0.290226	0.326618	-0.346943	-0.314158	0.292051	-0.358842	-0.260011	0.264379	-0.361919	-0.240139	0.299141	-0.355413	-0.397779	0.105161	-0.443737	-0.251673	0.035820	-0.358975	-0.196507	0.047444	-0.425494	-0.167984	0.037472	-0.419266	-0.256234	0.767049	-0.721526	-0.229311	0.711577	-0.727649	-0.170280	0.735515	-0.738707	-0.188436	0.793081	-0.733844	-0.196979	0.482024	-0.709653	-0.174993	0.470739	-0.587431	-0.315668	0.285610	-0.701277	-0.334103	0.251021	-0.690192	-0.277144	0.225899	-0.698588	-0.265663	0.267014	-0.709335	-0.403808	0.094198	-0.621079	-0.252436	0.038402	-0.710034	-0.199855	0.050103	-0.642902	-0.170230	0.036817	-0.651973	
257	1.2850	-0.285606	1.495699	-0.526985	-0.231848	1.472618	-0.716101	-0.247366	1.478639	-0.340755	-0.137428	1.440997	-0.530039	-0.159220	0.977839	-0.412634	-0.152516	0.978295	-0.647423	-0.237326	1.051763	-0.363423	-0.217803	1.056710	-0.695449	-0.334394	1.033341	-0.497804	-0.329308	1.037722	-0.575229	-0.332952	1.031999	-0.535579	-0.249343	0.801244	-0.336426	-0.233526	0.744603	-0.329400	-0.170546	0.760795	-0.326713	-0.179847	0.821120	-0.334586	-0.212561	0.473335	-0.353576	-0.180739	0.466276	-0.474215	-0.292072	0.330184	-0.346359	-0.315608	0.295605	-0.358104	-0.261196	0.268288	-0.361088	-0.241717	0.303234	-0.354692	-0.396870	0.108092	-0.442345	-0.251220	0.036022	-0.358711	-0.196433	0.047508	-0.425304	-0.168102	0.037504	-0.419294	-0.256643	0.772656	-0.721775	-0.229956	0.717005	-0.727785	-0.170782	0.740650	-0.738721	-0.188642	0.798301	-0.733772	-0.199780	0.487023	-0.709764	-0.177515	0.475244	-0.587596	-0.316961	0.289214	-0.701867	-0.334998	0.254444	-0.690860	-0.277857	0.229947	-0.699726	-0.266826	0.271141	-0.710304	-0.402746	0.097597	-0.622392	-0.251980	0.038572	-0.710307	-0.199783	0.050136	-0.643215	-0.170314	0.036823	-0.651862	
258	1.2900	-0.285970	1.500748	-0.527075	-0.232000	1.478096	-0.715803	-0.247888	1.483977	-0.341021	-0.137942	1.446624	-0.529996	-0.158611	0.982757	-0.412713	-0.152171	0.983611	-0.647414	-0.236097	1.057267	-0.363389	-0.217044	1.062549	-0.695142	-0.333719	1.038581	-0.497455	-0.328728	1.043020	-0.574950	-0.332409	1.037187	-0.535298	-0.249618	0.806372	-0.336387	-0.234221	0.749608	-0.329394	-0.171137	0.765307	-0.326647	-0.179980	0.825734	-0.334477	-0.215530	0.477924	-0.353590	-0.183621	0.470536	-0.474326	-0.293842	0.333823	-0.345810	-0.316957	0.299136	-0.357366	-0.262253	0.272226	-0.360243	-0.243242	0.307368	-0.353936	-0.395842	0.111095	-0.440924	-0.250733	0.036262	-0.358436	-0.196336	0.047599	-0.425118	-0.168217	0.037542	-0.419315	-0.257078	0.778255	-0.721911	-0.230644	0.722449	-0.727880	-0.171342	0.745808	-0.738739	-0.188911	0.803544	-0.733737	-0.202552	0.492025	-0.709865	-0.180003	0.479784	-0.587732	-0.318178	0.292841	-0.702476	-0.335819	0.257858	-0.691559	-0.278500	0.234012	-0.700953	-0.267921	0.275308	-0.711339	-0.401589	0.101030	-0.623820	-0.251506	0.038743	-0.710627	-0.199714	0.050194	-0.643572	-0.170408	0.036834	-0.651767	
